<svg xmlns="http://www.w3.org/2000/svg" viewBox="0 0 512 512">
  <defs>
    <linearGradient id="sky" x1="0" x2="0" y1="0" y2="1">
      <stop offset="0" stop-color="#9ed9f2"/>
      <stop offset="1" stop-color="#d9f2e0"/>
    </linearGradient>
    <linearGradient id="meadow" x1="0" x2="1" y1="0" y2="1">
      <stop offset="0" stop-color="#2d8a59"/>
      <stop offset="1" stop-color="#15543c"/>
    </linearGradient>
  </defs>
  <rect width="512" height="512" rx="112" fill="url(#sky)"/>
  <path d="M0 310 132 136l74 104 86-166 220 236v202H0Z" fill="#5c7779"/>
  <path d="m0 310 132-174 74 104-35 25-34-35-56 91Z" fill="#eef8f5"/>
  <path d="m206 240 86-166 91 97-53-38-31 67-36-28-27 57Z" fill="#f7fbf4"/>
  <path d="M0 333c94-31 174 4 256-13 86-18 155-41 256 8v184H0Z" fill="url(#meadow)"/>
  <ellipse cx="256" cy="354" rx="80" ry="27" fill="#102d25" opacity=".72"/>
  <path d="M177 350c0-66 36-104 79-104s79 38 79 104c-42 24-116 24-158 0Z" fill="#8d542b"/>
  <path d="M196 341c0-47 24-78 60-78s60 31 60 78c-34 20-86 20-120 0Z" fill="#c7884b"/>
  <ellipse cx="256" cy="250" rx="78" ry="68" fill="#a86737"/>
  <ellipse cx="256" cy="278" rx="47" ry="30" fill="#e4b978"/>
  <ellipse cy="256" cx="256" rx="15" ry="12" fill="#2a1712"/>
  <circle cx="224" cy="240" r="11" fill="#201412"/>
  <circle cx="288" cy="240" r="11" fill="#201412"/>
  <circle cx="220" cy="236" r="4" fill="#fff9dd"/>
  <circle cx="284" cy="236" r="4" fill="#fff9dd"/>
  <path d="M241 292h30c-3 22-27 22-30 0Z" fill="#fff0bd"/>
  <path d="M194 186c-22-23-51-3-42 24 7 21 27 24 44 7ZM318 186c22-23 51-3 42 24-7 21-27 24-44 7Z" fill="#8d542b"/>
  <path d="M197 190c-8-10-22-4-19 8 2 10 12 13 21 5ZM315 190c8-10 22-4 19 8-2 10-12 13-21 5Z" fill="#d48d4d"/>
</svg>
